<?xml version="1.0" standalone="no"?>
<!DOCTYPE svg PUBLIC "-//W3C//DTD SVG 20010904//EN"
 "http://www.w3.org/TR/2001/REC-SVG-20010904/DTD/svg10.dtd">
<svg version="1.0" xmlns="http://www.w3.org/2000/svg"
 width="100.000000pt" height="100.000000pt" viewBox="0 0 100.000000 100.000000"
 preserveAspectRatio="xMidYMid meet">

<g transform="translate(0.000000,100.000000) scale(0.100000,-0.100000)"
fill="#000000" stroke="none">
<path d="M225 801 c-11 -5 -31 -21 -45 -36 l-25 -27 0 -239 0 -239 33 -32 32
-33 280 0 280 0 32 33 33 32 0 240 0 240 -33 32 -32 33 -268 2 c-147 1 -276
-2 -287 -6z m554 -25 c46 -24 51 -50 51 -276 0 -226 -5 -252 -51 -276 -37 -19
-514 -21 -554 -2 -50 23 -55 48 -55 280 1 227 5 248 51 274 36 20 519 20 558
0z"/>
<path d="M222 737 c-21 -22 -22 -31 -22 -238 0 -212 0 -216 23 -237 23 -21 30
-22 278 -22 254 0 256 0 277 23 20 21 22 33 20 118 -1 77 -2 85 -7 41 l-6 -53
-65 66 c-35 36 -69 65 -74 65 -6 0 -34 -24 -63 -52 l-53 -52 -88 87 c-48 48
-92 87 -97 87 -5 0 -38 -28 -72 -62 l-63 -62 0 130 c0 97 4 135 14 150 13 18
32 19 243 24 l228 6 -226 2 c-224 2 -226 2 -247 -21z m288 -332 l155 -155
-208 0 c-251 0 -247 -2 -247 112 l0 72 62 63 c34 35 67 63 73 63 6 0 80 -70
165 -155z m212 18 c56 -56 68 -73 68 -100 0 -45 -30 -73 -78 -73 -33 0 -45 8
-107 70 l-69 70 49 50 c27 27 54 50 59 50 6 0 41 -30 78 -67z"/>
<path d="M627 662 c-33 -36 -8 -92 40 -92 25 0 53 30 53 57 0 46 -62 69 -93
35z m71 -4 c28 -28 7 -78 -33 -78 -40 0 -61 50 -33 78 7 7 21 12 33 12 12 0
26 -5 33 -12z"/>
<path d="M791 574 c0 -11 3 -14 6 -6 3 7 2 16 -1 19 -3 4 -6 -2 -5 -13z"/>
<path d="M792 515 c0 -16 2 -22 5 -12 2 9 2 23 0 30 -3 6 -5 -1 -5 -18z"/>
</g>
</svg>
